<?xml version="1.0" encoding="UTF-8"?><svg id="a" xmlns="http://www.w3.org/2000/svg" xmlns:xlink="http://www.w3.org/1999/xlink" viewBox="0 0 200 200"><defs><style>.d{fill:#fff;}.e{fill:url(#c);}.f{fill:none;stroke:#fff;stroke-linejoin:round;stroke-width:4.27px;}.g{fill:#080808;}.h{fill:url(#b);}</style><linearGradient id="b" x1="43.56" y1="84.71" x2="92.65" y2="84.71" gradientTransform="matrix(1, 0, 0, 1, 0, 0)" gradientUnits="userSpaceOnUse"><stop offset="0" stop-color="#f29100"/><stop offset=".91" stop-color="#bd1622"/></linearGradient><linearGradient id="c" x1="66.81" y1="149.88" x2="156.44" y2="149.88" xlink:href="#b"/></defs><path class="f" d="M156.23,186.13c-.39-1.37-.94-2.7-1.67-3.92,0,0-2.23-3.69-5.33-8.82,.23-.84,.44-1.71,.55-2.66,.18-1.6-.92-4.96-.92-4.96l-24.49-61.52s-.02-.04-.02-.06c-.66-2.7-1.4-5.28-2.2-7.77v-.03c-7.84-38.17-38.08-50.5-38.08-50.5-2.8-2.34-2.89-4.99-.87-8.29,1.01-1.65,2.28-3.01,3.71-4.16,.06-.05,.12-.07,.19-.08,.92-.14,2.06-.41,3.47-.84,10-3.09,15.09-6.83,16.8-8.27,.04-.03,.07-.05,.12-.07,.74-.28,.79-.47,1.54-.76,.27-.1,.23-.5-.06-.54-14.24-4.04-18.89-2.85-18.91-2.84-.22-.12-.43-.25-.62-.4-5.95-4.98-12.88-6.31-20.32-5.31-5.34,.72-9.6,3.56-13.28,7.47-7.15,7.62-9.11,16.59-7.17,26.59,.88,4.56,2.98,8.65,5.43,12.56,3.35,5.34,7.17,10.29,12.36,13.96,3.48,2.46,7.08,4.74,10.87,7.2,.46,.3,.14,1.02-.39,.86-.08-.02-.16-.05-.24-.07-19.34-5.81-26.96-17.09-30.89-23.73-.63-1.06-2.24-.6-2.23,.63,.47,45.14,49.09,51.07,49.09,51.07h0s.09,.02,.13,.02c.99,.19,.96,1.62-.04,1.76h-.09c-10.42,1.03-19.61-2.32-25-4.29-.61-.22-1.1,.51-.68,1,3.93,4.47,15.3,15.8,33.3,13.83,1.97-.22,3.75-.04,5.26,.28,2.39,.5,4.51,1.84,6.06,3.72,2.57,3.13,4.53,6.38,4.53,6.4l32.5,48.68,5.85,8.76s.71,.93,1.04,.08c1.11-2.78,1.04-3.81,.7-4.97Z"/><path class="g" d="M148.66,178.77c-.61-2.98,.78-5.1,1.1-8.03,.18-1.6-.92-4.96-.92-4.96l-24.49-61.52s-.02-.04-.02-.06c-.66-2.7-1.4-5.28-2.2-7.77v-.03c-7.84-38.17-38.08-50.5-38.08-50.5-2.8-2.34-2.89-4.99-.87-8.29,1.01-1.65,2.28-3.01,3.71-4.16,.06-.05,.12-.07,.19-.08,.92-.14,2.06-.41,3.47-.84,10-3.09,15.09-6.83,16.8-8.27,.04-.03,.07-.05,.12-.07,.74-.28,1.49-.56,2.24-.85,.27-.1,.23-.5-.06-.54-14.24-4.04-19.59-2.76-19.61-2.75-.22-.12-.43-.25-.62-.4-5.95-4.98-12.88-6.31-20.32-5.31-5.34,.72-9.6,3.56-13.28,7.47-7.15,7.62-9.11,16.59-7.17,26.59,.88,4.56,2.98,8.65,5.43,12.56,3.35,5.34,7.17,10.29,12.36,13.96,3.48,2.46,7.08,4.74,10.87,7.2,.46,.3,.14,1.02-.39,.86-13.92-4.09-23.16-10.18-29.62-20.81-1.08-1.78-3.24-.88-3.16,1.2,0,0,1.34,10.27,3.69,14.99,3.75,7.52,8.99,13.98,15.78,18.82,13.07,9.32,22.98,12.54,29.16,13.72,.99,.19,.96,1.62-.04,1.76-2.46,.34-5.74,.49-12.9-.48-4.78-.65-9.84-2.59-12.5-3.65-.44-.18,.15,.76,.51,1.08,3.58,3.13,11.5,8.9,15.13,10.56,10.84,4.97,16.85,2.69,20.78,2.74,6.2,.07,8.87,4.91,12.66,10.57l31.96,47.17c.19,.34,.71,1.86,1.04,1.68-.25-1.16-.51-2.33-.76-3.54Z"/><path class="h" d="M45.78,59.16c3.95,6.66,11.59,17.99,31.08,23.79,0,0-6.22,4.65-13.91,2.82-1.53-.36-2.26,2.06-1.2,3.23,4.89,5.42,18.94,17.82,30.9,21.86,0,0-48.62-5.93-49.09-51.07-.01-1.23,1.6-1.69,2.23-.63Z"/><path class="e" d="M156.23,186.14c-.39-1.37-.94-2.7-1.67-3.92,0,0-23.72-39.24-24.19-39.89-9.34-12.97-13.57-29.23-37.71-29.68-10.42,1.02-19.61-2.34-25-4.31-.61-.22-1.1,.51-.68,1,3.93,4.47,15.3,15.8,33.3,13.83,1.97-.22,3.75-.04,5.26,.28,2.39,.5,4.51,1.84,6.06,3.72,2.57,3.13,4.53,6.38,4.53,6.4l32.5,48.68,5.85,8.76s.71,.93,1.04,.08c1.11-2.78,1.04-3.81,.7-4.97Z"/><path class="d" d="M107.86,22.05c-.07,.09,0,.24,.12,.27,.17,.05,1.73,.7,.12,1.61-1.51,.85,1.96-.25,1.96-.25l.34-1.45-2.02-.85-.51,.66Z"/></svg>